<?xml version="1.0" encoding="iso-8859-1"?>
<!-- Uploaded to: SVG Repo, www.svgrepo.com, Generator: SVG Repo Mixer Tools -->
<svg version="1.1" id="Layer_1" xmlns="http://www.w3.org/2000/svg" xmlns:xlink="http://www.w3.org/1999/xlink" 
	 viewBox="0 0 513.093 513.093" xml:space="preserve">
<rect x="389.04" y="80.091" style="fill:#D4E4AC;" width="32.057" height="224.402"/>
<g>
	<rect x="389.04" y="80.091" style="fill:#E2804F;" width="32.057" height="32.057"/>
	<path style="fill:#E2804F;" d="M164.639,424.709h240.429v31.872c0,26.659-21.612,48.27-48.27,48.27H116.553"/>
</g>
<path style="fill:#F2BF7E;" d="M357.379,424.229V8.359H68.987v448.408c0,26.557,20.986,48.086,47.543,48.086
	s47.543-21.529,47.543-48.086v-32.538"/>
<rect x="204.709" y="376.623" style="fill:#FFFFFF;" width="104.187" height="48.086"/>
<path d="M357.414,513.093l-240.361-0.308v0.26c0,0-0.412,0-0.522,0c-30.824,0-55.902-25.442-55.902-56.278V0h305.11v408.555h-15.673
	V15.673H76.302v441.093c0,22.194,18.046,40.249,40.229,40.249s40.229-18.056,40.229-40.249v-39.852h257.045v39.852
	c0,14.935-5.874,29.054-16.625,39.757C386.446,507.209,372.355,513.093,357.414,513.093z M155.152,497.16l202.177,0.259
	c22.111,0,40.801-18.617,40.801-40.653v-24.179H172.432v24.179C172.432,472.63,165.795,486.973,155.152,497.16z"/>
<rect x="108.693" y="48.065" width="87.771" height="15.673"/>
<rect x="108.693" y="80.457" width="32.392" height="15.673"/>
<rect x="108.693" y="144.196" style="fill:#FFFFFF;" width="32.392" height="15.673"/>
<rect x="156.759" y="144.196" width="160.914" height="15.673"/>
<rect x="108.693" y="176.588" style="fill:#FFFFFF;" width="32.392" height="15.673"/>
<rect x="156.759" y="176.588" width="160.914" height="15.673"/>
<rect x="108.693" y="207.935" style="fill:#FFFFFF;" width="32.392" height="15.673"/>
<rect x="156.759" y="207.935" width="160.914" height="15.673"/>
<rect x="108.693" y="240.327" style="fill:#FFFFFF;" width="32.392" height="15.673"/>
<rect x="156.759" y="240.327" width="160.914" height="15.673"/>
<rect x="108.693" y="272.718" style="fill:#FFFFFF;" width="32.392" height="15.673"/>
<rect x="156.759" y="272.718" width="160.914" height="15.673"/>
<rect x="260.204" y="305.11" style="fill:#D4E4AC;" width="57.469" height="15.673"/>
<rect x="220.497" y="305.11" width="24.033" height="15.673"/>
<rect x="260.204" y="336.457" style="fill:#D4E4AC;" width="57.469" height="15.673"/>
<rect x="220.497" y="336.457" width="24.033" height="15.673"/>
<polygon points="316.628,408.555 300.955,408.555 300.955,384.522 212.138,384.522 212.138,408.555 196.465,408.555 
	196.465,368.849 316.628,368.849 "/>
<rect x="252.889" y="48.065" width="16.718" height="15.673"/>
<rect x="276.922" y="48.065" style="fill:#E2804F;" width="15.673" height="15.673"/>
<rect x="300.955" y="48.065" width="16.718" height="15.673"/>
<rect x="398.13" y="40.751" width="15.673" height="22.988"/>
<path d="M429.11,104.49V72.079h-48.086v240.429h17.106v23.949h15.673v-23.948h15.307V120.163h7.681v72.098h15.673V104.49H429.11z
	 M413.083,88.108v16.382h-16.029V88.108H413.083z M413.083,296.48h-16.029V120.163h16.029V296.48z"/>
<rect x="397.085" y="344.816" style="fill:#F2BF7E;" width="16.718" height="15.673"/>
</svg>